<svg width="107" height="39" viewBox="0 0 107 39" fill="none" xmlns="http://www.w3.org/2000/svg">
<path d="M10.6771 5.456C11.1811 5.456 11.5731 5.512 11.8531 5.624C12.1331 5.71733 12.3477 5.85733 12.4971 6.044C12.6464 6.212 12.7397 6.42667 12.7771 6.688C12.8144 6.94933 12.8331 7.248 12.8331 7.584V18.504C12.8331 18.9893 12.7771 19.652 12.6651 20.492C12.5717 21.332 12.3944 22.2093 12.1331 23.124C11.8904 24.0387 11.5544 24.9347 11.1251 25.812C10.7144 26.6893 10.2011 27.408 9.58506 27.968C9.32373 28.2107 9.0344 28.4067 8.71706 28.556C8.4184 28.724 8.10106 28.8173 7.76506 28.836C7.44773 28.8733 7.1304 28.836 6.81306 28.724C6.5144 28.612 6.22506 28.4067 5.94506 28.108C5.5904 27.7347 5.40373 27.268 5.38506 26.708C5.3664 26.148 5.54373 25.6347 5.91706 25.168C6.43973 24.5333 6.8504 23.9267 7.14906 23.348C7.44773 22.7693 7.67173 22.1813 7.82106 21.584C7.9704 20.9867 8.06373 20.3707 8.10106 19.736C8.15706 19.0827 8.18506 18.364 8.18506 17.58V9.32H3.48106C2.9584 9.32 2.52906 9.27333 2.19306 9.18C1.85706 9.068 1.59573 8.928 1.40906 8.76C1.2224 8.57333 1.09173 8.368 1.01706 8.144C0.961063 7.90133 0.933063 7.64 0.933063 7.36C0.933063 7.136 0.961063 6.912 1.01706 6.688C1.07306 6.44533 1.18506 6.24 1.35306 6.072C1.53973 5.88533 1.79173 5.736 2.10906 5.624C2.4264 5.512 2.8464 5.456 3.36906 5.456H10.6771ZM17.7051 7.556C17.7051 6.62267 17.9291 5.988 18.3771 5.652C18.8437 5.29733 19.3757 5.12 19.9731 5.12C20.2717 5.12 20.5517 5.15733 20.8131 5.232C21.0931 5.30667 21.3357 5.43733 21.5411 5.624C21.7464 5.81067 21.9144 6.06267 22.0451 6.38C22.1757 6.69733 22.2411 7.08933 22.2411 7.556V14.276H24.4531C24.9757 14.276 25.4051 14.3413 25.7411 14.472C26.0771 14.584 26.3384 14.7333 26.5251 14.92C26.7117 15.1067 26.8331 15.3213 26.8891 15.564C26.9637 15.788 27.0011 16.012 27.0011 16.236C27.0011 16.516 26.9637 16.7773 26.8891 17.02C26.8331 17.2627 26.7117 17.4773 26.5251 17.664C26.3384 17.832 26.0771 17.972 25.7411 18.084C25.4051 18.196 24.9757 18.252 24.4531 18.252H22.2411V26.68C22.2411 27.1653 22.1757 27.5667 22.0451 27.884C21.9144 28.2013 21.7464 28.4533 21.5411 28.64C21.3357 28.8267 21.0931 28.9573 20.8131 29.032C20.5517 29.1067 20.2717 29.144 19.9731 29.144C19.6744 29.144 19.3851 29.1067 19.1051 29.032C18.8437 28.9573 18.6011 28.8267 18.3771 28.64C18.1717 28.4533 18.0037 28.2013 17.8731 27.884C17.7611 27.5667 17.7051 27.1653 17.7051 26.68V7.556ZM27.7065 12.316C27.7065 12.036 27.7345 11.784 27.7905 11.56C27.8652 11.3173 27.9959 11.112 28.1825 10.944C28.3692 10.776 28.6305 10.6453 28.9665 10.552C29.3025 10.4587 29.7319 10.412 30.2545 10.412H39.4385C39.9612 10.412 40.3905 10.4587 40.7265 10.552C41.0625 10.6453 41.3239 10.776 41.5105 10.944C41.6972 11.112 41.8185 11.3173 41.8745 11.56C41.9492 11.784 41.9865 12.036 41.9865 12.316C41.9865 12.54 41.9492 12.764 41.8745 12.988C41.8185 13.212 41.6972 13.4173 41.5105 13.604C41.3239 13.772 41.0625 13.912 40.7265 14.024C40.3905 14.1173 39.9612 14.164 39.4385 14.164H37.4505V17.132C37.4505 17.916 37.5159 18.6347 37.6465 19.288C37.7772 19.9413 37.9919 20.5573 38.2905 21.136C38.5892 21.696 38.9905 22.2467 39.4945 22.788C39.9985 23.3107 40.6239 23.8333 41.3705 24.356C41.9679 24.7853 42.3599 25.2707 42.5465 25.812C42.7519 26.3533 42.6679 26.9227 42.2945 27.52C42.0892 27.8373 41.8372 28.0707 41.5385 28.22C41.2585 28.388 40.9505 28.4813 40.6145 28.5C40.4092 28.5 40.1945 28.472 39.9705 28.416C39.7465 28.3787 39.5319 28.2853 39.3265 28.136C38.4679 27.5387 37.7025 26.876 37.0305 26.148C36.3772 25.42 35.7985 24.664 35.2945 23.88C34.8092 24.7387 34.2492 25.532 33.6145 26.26C32.9799 26.988 32.2612 27.604 31.4585 28.108C30.9545 28.4253 30.3945 28.6027 29.7785 28.64C29.4612 28.6587 29.1345 28.6027 28.7985 28.472C28.4625 28.3413 28.1825 28.0893 27.9585 27.716C27.5852 27.1187 27.4919 26.5493 27.6785 26.008C27.8839 25.4667 28.2852 24.9813 28.8825 24.552C29.6292 24.0293 30.2545 23.4973 30.7585 22.956C31.2625 22.396 31.6639 21.8173 31.9625 21.22C32.2612 20.6227 32.4759 19.988 32.6065 19.316C32.7372 18.644 32.8025 17.916 32.8025 17.132V15.704V15.368V14.164H30.2545C29.7319 14.164 29.3025 14.1173 28.9665 14.024C28.6305 13.912 28.3692 13.772 28.1825 13.604C27.9959 13.4173 27.8652 13.212 27.7905 12.988C27.7345 12.764 27.7065 12.54 27.7065 12.316ZM46.2425 7.556C46.2425 6.62267 46.4665 5.988 46.9145 5.652C47.3812 5.29733 47.9132 5.12 48.5105 5.12C48.8092 5.12 49.0892 5.15733 49.3505 5.232C49.6305 5.30667 49.8732 5.43733 50.0785 5.624C50.2839 5.81067 50.4519 6.06267 50.5825 6.38C50.7132 6.69733 50.7785 7.08933 50.7785 7.556V26.68C50.7785 27.1653 50.7132 27.5667 50.5825 27.884C50.4519 28.2013 50.2839 28.4533 50.0785 28.64C49.8732 28.8267 49.6305 28.9573 49.3505 29.032C49.0892 29.1067 48.8092 29.144 48.5105 29.144C48.2119 29.144 47.9225 29.1067 47.6425 29.032C47.3812 28.9573 47.1385 28.8267 46.9145 28.64C46.7092 28.4533 46.5412 28.2013 46.4105 27.884C46.2985 27.5667 46.2425 27.1653 46.2425 26.68V7.556ZM29.4705 6.8C29.4705 6.52 29.4985 6.268 29.5545 6.044C29.6292 5.80133 29.7599 5.596 29.9465 5.428C30.1332 5.26 30.3945 5.12933 30.7305 5.036C31.0665 4.94267 31.4959 4.896 32.0185 4.896H37.6745C38.1972 4.896 38.6265 4.94267 38.9625 5.036C39.2985 5.12933 39.5599 5.26 39.7465 5.428C39.9332 5.596 40.0545 5.80133 40.1105 6.044C40.1852 6.268 40.2225 6.52 40.2225 6.8C40.2225 7.024 40.1852 7.248 40.1105 7.472C40.0545 7.696 39.9332 7.90133 39.7465 8.088C39.5599 8.256 39.2985 8.396 38.9625 8.508C38.6265 8.60133 38.1972 8.648 37.6745 8.648H32.0185C31.4959 8.648 31.0665 8.60133 30.7305 8.508C30.3945 8.396 30.1332 8.256 29.9465 8.088C29.7599 7.90133 29.6292 7.696 29.5545 7.472C29.4985 7.248 29.4705 7.024 29.4705 6.8ZM59.8 25.588H73.828C74.3507 25.588 74.78 25.644 75.116 25.756C75.452 25.868 75.7133 26.008 75.9 26.176C76.0867 26.3627 76.208 26.568 76.264 26.792C76.3387 27.0347 76.376 27.268 76.376 27.492C76.376 27.772 76.3387 28.024 76.264 28.248C76.208 28.4907 76.0867 28.696 75.9 28.864C75.7133 29.0507 75.452 29.1907 75.116 29.284C74.78 29.396 74.3507 29.452 73.828 29.452H57.532C57.0093 29.452 56.5987 29.396 56.3 29.284C56.0013 29.1907 55.768 29.0507 55.6 28.864C55.4507 28.696 55.3573 28.4907 55.32 28.248C55.2827 28.024 55.264 27.772 55.264 27.492V22.9C55.264 21.9667 55.488 21.332 55.936 20.996C56.4027 20.6413 56.9347 20.464 57.532 20.464C57.8307 20.464 58.1107 20.5013 58.372 20.576C58.652 20.6507 58.8947 20.7813 59.1 20.968C59.3053 21.1547 59.4733 21.4067 59.604 21.724C59.7347 22.0413 59.8 22.4333 59.8 22.9V25.588ZM59.212 7.696C59.212 7.22933 59.2773 6.83733 59.408 6.52C59.5387 6.20267 59.7067 5.95067 59.912 5.764C60.136 5.57733 60.388 5.44667 60.668 5.372C60.948 5.29733 61.2373 5.26 61.536 5.26C61.8347 5.26 62.124 5.29733 62.404 5.372C62.684 5.44667 62.9267 5.57733 63.132 5.764C63.356 5.95067 63.5333 6.20267 63.664 6.52C63.7947 6.83733 63.86 7.22933 63.86 7.696V8.732C63.86 9.44133 63.916 10.0667 64.028 10.608C64.1587 11.1493 64.364 11.6627 64.644 12.148C64.924 12.6147 65.2973 13.072 65.764 13.52C66.2493 13.9493 66.8467 14.416 67.556 14.92C68.1533 15.3493 68.5453 15.8347 68.732 16.376C68.9373 16.9173 68.8533 17.4867 68.48 18.084C68.2747 18.4013 68.0227 18.644 67.724 18.812C67.444 18.9613 67.136 19.0453 66.8 19.064C66.5947 19.064 66.38 19.0453 66.156 19.008C65.932 18.952 65.7173 18.8493 65.512 18.7C64.672 18.0653 63.944 17.4493 63.328 16.852C62.712 16.2547 62.1707 15.6573 61.704 15.06C61.2747 15.6947 60.752 16.32 60.136 16.936C59.5387 17.5333 58.848 18.112 58.064 18.672C57.84 18.84 57.5787 18.9707 57.28 19.064C56.9813 19.1387 56.6827 19.1853 56.384 19.204C56.0667 19.2227 55.74 19.1667 55.404 19.036C55.068 18.9053 54.788 18.6533 54.564 18.28C54.1907 17.6827 54.0973 17.1133 54.284 16.572C54.4893 16.0307 54.8907 15.5453 55.488 15.116C56.1973 14.612 56.7853 14.136 57.252 13.688C57.7187 13.2213 58.092 12.7453 58.372 12.26C58.652 11.756 58.8573 11.224 58.988 10.664C59.1187 10.0853 59.1933 9.44133 59.212 8.732V7.696ZM71.084 7.556C71.084 6.62267 71.308 5.988 71.756 5.652C72.2227 5.29733 72.7547 5.12 73.352 5.12C73.6507 5.12 73.9307 5.15733 74.192 5.232C74.472 5.30667 74.7147 5.43733 74.92 5.624C75.1253 5.81067 75.2933 6.06267 75.424 6.38C75.5547 6.69733 75.62 7.08933 75.62 7.556V10.916H77.664C78.1867 10.916 78.616 10.9813 78.952 11.112C79.288 11.224 79.5493 11.3733 79.736 11.56C79.9227 11.7467 80.044 11.9613 80.1 12.204C80.1747 12.428 80.212 12.652 80.212 12.876C80.212 13.156 80.1747 13.4173 80.1 13.66C80.044 13.9027 79.9227 14.1173 79.736 14.304C79.5493 14.472 79.288 14.612 78.952 14.724C78.616 14.836 78.1867 14.892 77.664 14.892H75.62V18.756C75.62 19.2413 75.5547 19.6427 75.424 19.96C75.2933 20.2773 75.1253 20.5293 74.92 20.716C74.7147 20.9027 74.472 21.0333 74.192 21.108C73.9307 21.1827 73.6507 21.22 73.352 21.22C73.0533 21.22 72.764 21.1827 72.484 21.108C72.2227 21.0333 71.98 20.9027 71.756 20.716C71.5507 20.5293 71.3827 20.2773 71.252 19.96C71.14 19.6427 71.084 19.2413 71.084 18.756V7.556ZM100.349 14.36H98.0815V16.908C98.0815 17.8787 97.9041 18.532 97.5495 18.868C97.2135 19.204 96.7468 19.372 96.1495 19.372C95.5521 19.372 95.0668 19.204 94.6935 18.868C94.3388 18.532 94.1615 17.8787 94.1615 16.908V7.556C94.1615 6.62267 94.3388 5.988 94.6935 5.652C95.0481 5.29733 95.5241 5.12 96.1215 5.12C96.7001 5.12 97.1668 5.29733 97.5215 5.652C97.8948 5.988 98.0815 6.62267 98.0815 7.556V10.384H100.349V7.556C100.349 6.62267 100.527 5.988 100.881 5.652C101.236 5.29733 101.712 5.12 102.309 5.12C102.888 5.12 103.355 5.29733 103.709 5.652C104.083 5.988 104.269 6.62267 104.269 7.556V16.908C104.269 17.8787 104.092 18.532 103.737 18.868C103.401 19.204 102.935 19.372 102.337 19.372C101.74 19.372 101.255 19.204 100.881 18.868C100.527 18.532 100.349 17.8787 100.349 16.908V14.36ZM99.4255 24.188H85.1175C84.5948 24.188 84.1655 24.132 83.8295 24.02C83.4935 23.908 83.2321 23.768 83.0455 23.6C82.8588 23.4133 82.7281 23.208 82.6535 22.984C82.5975 22.7413 82.5695 22.508 82.5695 22.284C82.5695 22.004 82.5975 21.752 82.6535 21.528C82.7281 21.2853 82.8588 21.08 83.0455 20.912C83.2321 20.7253 83.4935 20.5853 83.8295 20.492C84.1655 20.38 84.5948 20.324 85.1175 20.324H101.693C102.216 20.324 102.627 20.38 102.925 20.492C103.224 20.5853 103.448 20.7253 103.597 20.912C103.765 21.08 103.868 21.2853 103.905 21.528C103.943 21.752 103.961 22.004 103.961 22.284V27.016C103.961 27.4827 103.896 27.8747 103.765 28.192C103.635 28.5093 103.467 28.7613 103.261 28.948C103.056 29.1347 102.813 29.2653 102.533 29.34C102.272 29.4147 101.992 29.452 101.693 29.452C101.096 29.452 100.564 29.2747 100.097 28.92C99.6495 28.584 99.4255 27.9493 99.4255 27.016V24.188ZM80.7495 10.58C80.7495 10.3373 80.7681 10.1227 80.8055 9.936C80.8428 9.73067 80.9361 9.56267 81.0855 9.432C81.2535 9.28267 81.4868 9.17067 81.7855 9.096C82.0841 9.02133 82.4948 8.984 83.0175 8.984H90.8575C91.3801 8.984 91.7908 9.02133 92.0895 9.096C92.3881 9.17067 92.6121 9.28267 92.7615 9.432C92.9295 9.56267 93.0321 9.73067 93.0695 9.936C93.1068 10.1227 93.1255 10.3373 93.1255 10.58C93.1255 10.7853 93.1068 10.9813 93.0695 11.168C93.0321 11.3547 92.9295 11.5227 92.7615 11.672C92.6121 11.8027 92.3881 11.9147 92.0895 12.008C91.7908 12.0827 91.3801 12.12 90.8575 12.12H89.4855C89.5601 12.4933 89.6535 12.8107 89.7655 13.072C89.8961 13.3333 90.0641 13.5853 90.2695 13.828C90.4935 14.052 90.7548 14.2853 91.0535 14.528C91.3708 14.7707 91.7441 15.0413 92.1735 15.34C92.7708 15.7693 93.1255 16.208 93.2375 16.656C93.3495 17.0853 93.2748 17.552 93.0135 18.056C92.8455 18.3733 92.6028 18.5973 92.2855 18.728C91.9868 18.8587 91.6695 18.9333 91.3335 18.952C91.1281 18.952 90.9041 18.9333 90.6615 18.896C90.4375 18.84 90.2321 18.7373 90.0455 18.588C89.5041 18.1213 89.0001 17.664 88.5335 17.216C88.0855 16.768 87.6748 16.32 87.3015 15.872C86.5921 16.8053 85.6588 17.7293 84.5015 18.644C84.2775 18.812 84.0161 18.9427 83.7175 19.036C83.4188 19.1107 83.1201 19.1573 82.8215 19.176C82.5041 19.1947 82.1775 19.1387 81.8415 19.008C81.5055 18.8773 81.2255 18.6253 81.0015 18.252C80.6281 17.6547 80.5161 17.16 80.6655 16.768C80.8335 16.3573 81.2255 15.9467 81.8415 15.536C82.2895 15.2373 82.6721 14.9667 82.9895 14.724C83.3255 14.4813 83.5961 14.2387 83.8015 13.996C84.0068 13.7347 84.1655 13.4547 84.2775 13.156C84.4081 12.8573 84.5015 12.512 84.5575 12.12H83.0175C82.4948 12.12 82.0841 12.0827 81.7855 12.008C81.4868 11.9147 81.2535 11.8027 81.0855 11.672C80.9361 11.5227 80.8428 11.3547 80.8055 11.168C80.7681 10.9813 80.7495 10.7853 80.7495 10.58ZM82.4015 6.352C82.4015 5.96 82.5321 5.61467 82.7935 5.316C83.0735 5.01733 83.6521 4.868 84.5295 4.868H89.3455C90.2228 4.868 90.7921 5.01733 91.0535 5.316C91.3335 5.61467 91.4735 5.96 91.4735 6.352C91.4735 6.52 91.4455 6.69733 91.3895 6.884C91.3335 7.052 91.2215 7.21067 91.0535 7.36C90.9041 7.49067 90.6895 7.60267 90.4095 7.696C90.1481 7.77067 89.7935 7.808 89.3455 7.808H84.5295C84.0815 7.808 83.7175 7.77067 83.4375 7.696C83.1761 7.60267 82.9615 7.49067 82.7935 7.36C82.6441 7.21067 82.5415 7.052 82.4855 6.884C82.4295 6.69733 82.4015 6.52 82.4015 6.352Z" fill="white"/>
</svg>
