<svg width="190" height="199" viewBox="0 0 190 199" fill="none" xmlns="http://www.w3.org/2000/svg">
<path d="M91.786 82.5H157.978C157.978 82.5 105.608 114.056 105.608 141.375C105.608 168.694 189.75 198.25 189.75 198.25H49.4233C49.4233 198.25 0 171.725 0 141.375C0 111.025 91.786 82.5 91.786 82.5Z" fill="#FFF7CC"/>
<mask id="path-2-inside-1_1190_656" fill="white">
<path d="M127.875 0C137.195 0 144.75 7.55519 144.75 16.875C144.75 17.6903 144.691 18.4919 144.579 19.2764C151.222 21.5441 156 27.8389 156 35.25C156 38.9205 154.827 42.3166 152.837 45.0859C157.009 47.919 159.75 52.7019 159.75 58.125C159.75 66.8235 152.698 73.875 144 73.875H111.75C103.052 73.875 96 66.8235 96 58.125C96 52.7022 98.7404 47.9191 102.912 45.0859C100.922 42.3167 99.75 38.9203 99.75 35.25C99.75 27.8392 104.527 21.5443 111.17 19.2764C111.058 18.492 111 17.6903 111 16.875C111 7.55519 118.555 0 127.875 0Z"/>
</mask>
<path d="M127.875 0C137.195 0 144.75 7.55519 144.75 16.875C144.75 17.6903 144.691 18.4919 144.579 19.2764C151.222 21.5441 156 27.8389 156 35.25C156 38.9205 154.827 42.3166 152.837 45.0859C157.009 47.919 159.75 52.7019 159.75 58.125C159.75 66.8235 152.698 73.875 144 73.875H111.75C103.052 73.875 96 66.8235 96 58.125C96 52.7022 98.7404 47.9191 102.912 45.0859C100.922 42.3167 99.75 38.9203 99.75 35.25C99.75 27.8392 104.527 21.5443 111.17 19.2764C111.058 18.492 111 17.6903 111 16.875C111 7.55519 118.555 0 127.875 0Z" fill="#5FD59B"/>
<path d="M144.579 19.2764L141.609 18.8532C141.406 20.2801 142.246 21.6499 143.61 22.1155L144.579 19.2764ZM152.837 45.0859L150.401 43.3353C149.928 43.9926 149.742 44.813 149.883 45.61C150.024 46.407 150.482 47.1131 151.152 47.5678L152.837 45.0859ZM144 73.875V76.875V73.875ZM102.912 45.0859L104.598 47.5677C105.267 47.113 105.725 46.407 105.866 45.61C106.007 44.813 105.821 43.9927 105.348 43.3354L102.912 45.0859ZM111.17 19.2764L112.139 22.1155C113.503 21.6498 114.343 20.28 114.14 18.8532L111.17 19.2764ZM127.875 0V3C135.538 3 141.75 9.21205 141.75 16.875H144.75H147.75C147.75 5.89834 138.852 -3 127.875 -3V0ZM144.75 16.875H141.75C141.75 17.545 141.701 18.2052 141.609 18.8532L144.579 19.2764L147.549 19.6995C147.68 18.7787 147.75 17.8356 147.75 16.875H144.75ZM144.579 19.2764L143.61 22.1155C149.076 23.9813 153 29.1612 153 35.25H156H159C159 26.5165 153.369 19.1068 145.548 16.4372L144.579 19.2764ZM156 35.25H153C153 38.271 152.037 41.0584 150.401 43.3353L152.837 45.0859L155.273 46.8366C157.617 43.5747 159 39.5701 159 35.25H156ZM152.837 45.0859L151.152 47.5678C154.537 49.8664 156.75 53.7376 156.75 58.125H159.75H162.75C162.75 51.6661 159.482 45.9716 154.522 42.6041L152.837 45.0859ZM159.75 58.125H156.75C156.75 65.1666 151.042 70.875 144 70.875V73.875V76.875C154.355 76.875 162.75 68.4803 162.75 58.125H159.75ZM144 73.875V70.875H111.75V73.875V76.875H144V73.875ZM111.75 73.875V70.875C104.708 70.875 99 65.1666 99 58.125H96H93C93 68.4803 101.395 76.875 111.75 76.875V73.875ZM96 58.125H99C99 53.7377 101.213 49.8662 104.598 47.5677L102.912 45.0859L101.227 42.6041C96.2677 45.9719 93 51.6667 93 58.125H96ZM102.912 45.0859L105.348 43.3354C103.713 41.0589 102.75 38.2713 102.75 35.25H99.75H96.75C96.75 39.5694 98.1318 43.5744 100.476 46.8365L102.912 45.0859ZM99.75 35.25H102.75C102.75 29.1614 106.674 23.9815 112.139 22.1155L111.17 19.2764L110.201 16.4373C102.381 19.1071 96.75 26.517 96.75 35.25H99.75ZM111.17 19.2764L114.14 18.8532C114.048 18.2077 114 17.5474 114 16.875H111H108C108 17.8332 108.068 18.7763 108.2 19.6995L111.17 19.2764ZM111 16.875H114C114 9.21205 120.212 3 127.875 3V0V-3C116.898 -3 108 5.89834 108 16.875H111Z" fill="black" mask="url(#path-2-inside-1_1190_656)"/>
<line x1="129.375" y1="38.625" x2="129.375" y2="91.5" stroke="black" stroke-width="3" stroke-linecap="round"/>
<line x1="121.746" y1="44.195" x2="128.708" y2="50.8052" stroke="black" stroke-width="3" stroke-linecap="round"/>
<line x1="1.5" y1="-1.5" x2="11.1002" y2="-1.5" transform="matrix(-0.660461 0.750861 0.750861 0.660461 138.447 54.75)" stroke="black" stroke-width="3" stroke-linecap="round"/>
<mask id="path-7-outside-2_1190_656" maskUnits="userSpaceOnUse" x="4.75" y="27.75" width="119" height="133" fill="black">
<rect fill="white" x="4.75" y="27.75" width="119" height="133"/>
<path d="M66.625 29.75C81.0534 29.75 92.75 41.4466 92.75 55.875C92.75 64.0606 88.984 71.3651 83.0918 76.1553C83.5419 76.2089 83.986 76.3801 84.376 76.6797C87.3003 78.9267 92.0459 82.304 95.9746 83.835C98.1286 84.6743 100.84 85.269 103.454 85.6904C105.287 83.5832 107.988 82.25 111 82.25C116.523 82.25 121 86.7272 121 92.25C121 97.7729 116.523 102.25 111 102.25C108.172 102.25 105.62 101.074 103.801 99.1865C100.189 98.6494 94.8655 97.6851 91.1426 96.2344C89.6547 95.6546 88.0321 94.8429 86.4258 93.9492C86.4744 94.75 86.5 95.5589 86.5 96.375C86.5 107.271 82.0865 116.898 75.3398 122.707C77.9318 125.221 80.5882 128.069 82.1592 130.522C83.3855 132.438 84.5184 134.746 85.4941 137.002C93.8058 132.463 102.22 131.967 104.529 135.972C106.909 140.098 101.904 147.441 93.3516 152.372C84.7991 157.303 75.9368 157.955 73.5576 153.828C73.5423 153.801 73.5284 153.774 73.5137 153.747C73.2438 153.457 73.0346 153.101 72.916 152.69C71.8331 148.941 69.8533 142.923 67.3486 139.011C64.9636 135.286 60.5324 131.023 57.4912 128.304C55.3916 128.02 53.367 127.433 51.4473 126.574C49.5591 130.069 47.018 134.298 44.625 136.75C43.4863 137.917 42.1119 139.071 40.6904 140.151C45.6112 146.214 47.0038 153.156 43.666 156.48C39.9233 160.209 31.653 157.975 25.1943 151.491C18.7357 145.008 16.5346 136.729 20.2773 133.001C20.7991 132.481 21.4083 132.077 22.0889 131.784C25.305 130.06 30.0936 127.229 32.9629 124.289C35.2446 121.951 37.5127 118.314 39.2246 115.232C36.0965 109.936 34.25 103.421 34.25 96.375C34.25 93.231 34.619 90.193 35.3037 87.3213C32.3889 88.8659 29.197 91.3363 26.7471 93.4082C26.7473 93.4388 26.75 93.4694 26.75 93.5C26.75 99.0229 22.2728 103.5 16.75 103.5C11.2272 103.5 6.75 99.0229 6.75 93.5C6.75 87.9772 11.2272 83.5 16.75 83.5C17.1052 83.5 17.4561 83.5186 17.8018 83.5547C17.9038 83.4296 18.0189 83.3124 18.1484 83.207C20.717 81.1185 26.1894 76.8669 30.5596 74.8164C34.8164 72.8191 41.3478 71.3533 44.6855 70.6865C44.7707 70.6077 44.8574 70.5307 44.9434 70.4531C42.1381 66.2891 40.5 61.2735 40.5 55.875C40.5 41.4466 52.1966 29.75 66.625 29.75Z"/>
</mask>
<path d="M66.625 29.75C81.0534 29.75 92.75 41.4466 92.75 55.875C92.75 64.0606 88.984 71.3651 83.0918 76.1553C83.5419 76.2089 83.986 76.3801 84.376 76.6797C87.3003 78.9267 92.0459 82.304 95.9746 83.835C98.1286 84.6743 100.84 85.269 103.454 85.6904C105.287 83.5832 107.988 82.25 111 82.25C116.523 82.25 121 86.7272 121 92.25C121 97.7729 116.523 102.25 111 102.25C108.172 102.25 105.62 101.074 103.801 99.1865C100.189 98.6494 94.8655 97.6851 91.1426 96.2344C89.6547 95.6546 88.0321 94.8429 86.4258 93.9492C86.4744 94.75 86.5 95.5589 86.5 96.375C86.5 107.271 82.0865 116.898 75.3398 122.707C77.9318 125.221 80.5882 128.069 82.1592 130.522C83.3855 132.438 84.5184 134.746 85.4941 137.002C93.8058 132.463 102.22 131.967 104.529 135.972C106.909 140.098 101.904 147.441 93.3516 152.372C84.7991 157.303 75.9368 157.955 73.5576 153.828C73.5423 153.801 73.5284 153.774 73.5137 153.747C73.2438 153.457 73.0346 153.101 72.916 152.69C71.8331 148.941 69.8533 142.923 67.3486 139.011C64.9636 135.286 60.5324 131.023 57.4912 128.304C55.3916 128.02 53.367 127.433 51.4473 126.574C49.5591 130.069 47.018 134.298 44.625 136.75C43.4863 137.917 42.1119 139.071 40.6904 140.151C45.6112 146.214 47.0038 153.156 43.666 156.48C39.9233 160.209 31.653 157.975 25.1943 151.491C18.7357 145.008 16.5346 136.729 20.2773 133.001C20.7991 132.481 21.4083 132.077 22.0889 131.784C25.305 130.06 30.0936 127.229 32.9629 124.289C35.2446 121.951 37.5127 118.314 39.2246 115.232C36.0965 109.936 34.25 103.421 34.25 96.375C34.25 93.231 34.619 90.193 35.3037 87.3213C32.3889 88.8659 29.197 91.3363 26.7471 93.4082C26.7473 93.4388 26.75 93.4694 26.75 93.5C26.75 99.0229 22.2728 103.5 16.75 103.5C11.2272 103.5 6.75 99.0229 6.75 93.5C6.75 87.9772 11.2272 83.5 16.75 83.5C17.1052 83.5 17.4561 83.5186 17.8018 83.5547C17.9038 83.4296 18.0189 83.3124 18.1484 83.207C20.717 81.1185 26.1894 76.8669 30.5596 74.8164C34.8164 72.8191 41.3478 71.3533 44.6855 70.6865C44.7707 70.6077 44.8574 70.5307 44.9434 70.4531C42.1381 66.2891 40.5 61.2735 40.5 55.875C40.5 41.4466 52.1966 29.75 66.625 29.75Z" fill="#FFEC8A"/>
<path d="M83.0918 76.1553L81.8302 74.6034L78.1655 77.5826L82.8552 78.1412L83.0918 76.1553ZM84.376 76.6797L85.5946 75.0938L84.376 76.6797ZM95.9746 83.835L95.2484 85.6985L95.2484 85.6985L95.9746 83.835ZM103.454 85.6904L103.136 87.6649L104.233 87.8419L104.963 87.0032L103.454 85.6904ZM103.801 99.1865L105.241 97.7987L104.768 97.3084L104.095 97.2083L103.801 99.1865ZM91.1426 96.2344L90.4164 98.0979L90.4164 98.0979L91.1426 96.2344ZM86.4258 93.9492L87.3981 92.2015L84.2082 90.4269L84.4295 94.0704L86.4258 93.9492ZM75.3398 122.707L74.0349 121.191L72.3765 122.619L73.9475 124.143L75.3398 122.707ZM82.1592 130.522L83.8435 129.444L82.1592 130.522ZM85.4941 137.002L83.6585 137.796L84.5288 139.808L86.4528 138.757L85.4941 137.002ZM104.529 135.972L106.262 134.973L106.262 134.973L104.529 135.972ZM93.3516 152.372L94.3505 154.105L94.3505 154.105L93.3516 152.372ZM73.5576 153.828L71.8249 154.827L71.825 154.827L73.5576 153.828ZM73.5137 153.747L75.2677 152.786L75.1475 152.567L74.9771 152.384L73.5137 153.747ZM72.916 152.69L70.9945 153.245L70.9946 153.245L72.916 152.69ZM67.3486 139.011L69.033 137.932H69.033L67.3486 139.011ZM57.4912 128.304L58.8242 126.813L58.3669 126.404L57.7589 126.322L57.4912 128.304ZM51.4473 126.574L52.2636 124.748L50.5698 123.991L49.6877 125.623L51.4473 126.574ZM44.625 136.75L46.0564 138.147L44.625 136.75ZM40.6904 140.151L39.4804 138.559L37.8361 139.808L39.1376 141.412L40.6904 140.151ZM43.666 156.48L45.0775 157.897L45.0775 157.897L43.666 156.48ZM25.1943 151.491L23.7774 152.903L23.7774 152.903L25.1943 151.491ZM20.2773 133.001L18.8659 131.584L18.8659 131.584L20.2773 133.001ZM22.0889 131.784L22.879 133.621L22.958 133.588L23.0338 133.547L22.0889 131.784ZM32.9629 124.289L34.3942 125.686L34.3942 125.686L32.9629 124.289ZM39.2246 115.232L40.973 116.204L41.5294 115.202L40.9467 114.215L39.2246 115.232ZM35.3037 87.3213L37.2492 87.7851L38.2749 83.4833L34.3672 85.5541L35.3037 87.3213ZM26.7471 93.4082L25.4556 91.8811L24.7387 92.4874L24.7472 93.4262L26.7471 93.4082ZM17.8018 83.5547L17.5938 85.5438L18.6688 85.6562L19.3518 84.8186L17.8018 83.5547ZM18.1484 83.207L16.8867 81.6553L16.8866 81.6553L18.1484 83.207ZM30.5596 74.8164L29.71 73.0058L30.5596 74.8164ZM44.6855 70.6865L45.0774 72.6478L45.6299 72.5374L46.0436 72.1547L44.6855 70.6865ZM44.9434 70.4531L46.2827 71.9384L47.5722 70.7757L46.6021 69.3357L44.9434 70.4531ZM66.625 29.75V31.75C79.9489 31.75 90.75 42.5511 90.75 55.875H92.75H94.75C94.75 40.342 82.158 27.75 66.625 27.75V29.75ZM92.75 55.875H90.75C90.75 63.4327 87.2756 70.1765 81.8302 74.6034L83.0918 76.1553L84.3534 77.7072C90.6925 72.5538 94.75 64.6884 94.75 55.875H92.75ZM83.0918 76.1553L82.8552 78.1412C82.9597 78.1537 83.0621 78.1923 83.1574 78.2656L84.376 76.6797L85.5946 75.0938C84.91 74.5678 84.1241 74.2641 83.3284 74.1693L83.0918 76.1553ZM84.376 76.6797L83.1574 78.2656C86.0797 80.511 91.0258 84.0529 95.2484 85.6985L95.9746 83.835L96.7008 81.9715C93.0661 80.555 88.5209 77.3423 85.5946 75.0938L84.376 76.6797ZM95.9746 83.835L95.2484 85.6985C97.598 86.6141 100.472 87.2355 103.136 87.6649L103.454 85.6904L103.772 83.7159C101.208 83.3025 98.6592 82.7346 96.7008 81.9715L95.9746 83.835ZM103.454 85.6904L104.963 87.0032C106.433 85.3133 108.591 84.25 111 84.25V82.25V80.25C107.384 80.25 104.142 81.8531 101.945 84.3777L103.454 85.6904ZM111 82.25V84.25C115.418 84.25 119 87.8317 119 92.25H121H123C123 85.6226 117.627 80.25 111 80.25V82.25ZM121 92.25H119C119 96.6683 115.418 100.25 111 100.25V102.25V104.25C117.627 104.25 123 98.8774 123 92.25H121ZM111 102.25V100.25C108.738 100.25 106.699 99.3122 105.241 97.7987L103.801 99.1865L102.361 100.574C104.54 102.836 107.605 104.25 111 104.25V102.25ZM103.801 99.1865L104.095 97.2083C100.487 96.6718 95.3622 95.7322 91.8688 94.3709L91.1426 96.2344L90.4164 98.0979C94.3688 99.6381 99.8906 100.627 103.507 101.165L103.801 99.1865ZM91.1426 96.2344L91.8688 94.3709C90.4983 93.8368 88.9634 93.0723 87.3981 92.2015L86.4258 93.9492L85.4535 95.697C87.1009 96.6135 88.8112 97.4723 90.4164 98.0979L91.1426 96.2344ZM86.4258 93.9492L84.4295 94.0704C84.4757 94.8323 84.5 95.6008 84.5 96.375H86.5H88.5C88.5 95.5171 88.4731 94.6677 88.4221 93.828L86.4258 93.9492ZM86.5 96.375H84.5C84.5 106.753 80.2941 115.802 74.0349 121.191L75.3398 122.707L76.6448 124.223C83.879 117.994 88.5 107.79 88.5 96.375H86.5ZM75.3398 122.707L73.9475 124.143C76.5225 126.64 79.0363 129.354 80.4748 131.601L82.1592 130.522L83.8435 129.444C82.1401 126.784 79.341 123.801 76.7322 121.271L75.3398 122.707ZM82.1592 130.522L80.4748 131.601C81.6195 133.389 82.7035 135.588 83.6585 137.796L85.4941 137.002L87.3298 136.208C86.3332 133.904 85.1515 131.487 83.8435 129.444L82.1592 130.522ZM85.4941 137.002L86.4528 138.757C90.4103 136.596 94.3034 135.45 97.3737 135.28C100.583 135.101 102.227 135.982 102.797 136.971L104.529 135.972L106.262 134.973C104.523 131.957 100.805 131.083 97.1517 131.286C93.3595 131.497 88.8896 132.869 84.5355 135.247L85.4941 137.002ZM104.529 135.972L102.797 136.971C103.385 137.992 103.294 139.946 101.387 142.744C99.5681 145.413 96.4265 148.291 92.3526 150.639L93.3516 152.372L94.3505 154.105C98.829 151.523 102.466 148.264 104.692 144.997C106.831 141.859 108.053 138.078 106.262 134.973L104.529 135.972ZM93.3516 152.372L92.3526 150.639C88.2787 152.988 84.2141 154.265 80.9929 154.502C77.6158 154.751 75.8789 153.85 75.2903 152.829L73.5576 153.828L71.825 154.827C73.6156 157.933 77.4994 158.77 81.2863 158.491C85.2292 158.201 89.872 156.687 94.3505 154.105L93.3516 152.372ZM73.5576 153.828L75.2903 152.829C75.2958 152.839 75.2996 152.846 75.3012 152.849C75.3027 152.851 75.303 152.852 75.3009 152.848C75.2998 152.846 75.2986 152.844 75.2967 152.84C75.2949 152.837 75.2924 152.832 75.2898 152.827C75.2845 152.817 75.2767 152.803 75.2677 152.786L73.5137 153.747L71.7597 154.708C71.758 154.705 71.7575 154.704 71.7594 154.708C71.7604 154.709 71.7615 154.712 71.7634 154.715C71.765 154.718 71.7674 154.723 71.77 154.727C71.7794 154.745 71.7996 154.783 71.8249 154.827L73.5576 153.828ZM73.5137 153.747L74.9771 152.384C74.9152 152.317 74.8665 152.236 74.8375 152.135L72.916 152.69L70.9946 153.245C71.2027 153.966 71.5725 154.597 72.0503 155.11L73.5137 153.747ZM72.916 152.69L74.8375 152.136C73.7547 148.386 71.7101 142.114 69.033 137.932L67.3486 139.011L65.6643 140.089C67.9965 143.732 69.9116 149.495 70.9945 153.245L72.916 152.69ZM67.3486 139.011L69.033 137.932C66.4848 133.953 61.8633 129.53 58.8242 126.813L57.4912 128.304L56.1582 129.795C59.2015 132.516 63.4423 136.619 65.6643 140.089L67.3486 139.011ZM57.4912 128.304L57.7589 126.322C55.8548 126.065 54.0146 125.531 52.2636 124.748L51.4473 126.574L50.6309 128.4C52.7194 129.334 54.9285 129.976 57.2236 130.286L57.4912 128.304ZM51.4473 126.574L49.6877 125.623C47.7982 129.12 45.3707 133.122 43.1936 135.353L44.625 136.75L46.0564 138.147C48.6652 135.474 51.3199 131.017 53.2068 127.525L51.4473 126.574ZM44.625 136.75L43.1936 135.353C42.1482 136.424 40.8572 137.513 39.4804 138.559L40.6904 140.151L41.9004 141.744C43.3665 140.63 44.8244 139.409 46.0564 138.147L44.625 136.75ZM40.6904 140.151L39.1376 141.412C41.4362 144.244 42.8375 147.197 43.3095 149.711C43.7866 152.253 43.282 154.04 42.2545 155.064L43.666 156.48L45.0775 157.897C47.3878 155.596 47.8558 152.25 47.2409 148.973C46.6209 145.671 44.8655 142.121 42.2433 138.891L40.6904 140.151ZM43.666 156.48L42.2546 155.063C41.1039 156.21 38.976 156.696 35.9702 155.884C33.0232 155.089 29.6381 153.118 26.6113 150.08L25.1943 151.491L23.7774 152.903C27.2092 156.348 31.1886 158.736 34.9271 159.746C38.6068 160.74 42.4854 160.479 45.0775 157.897L43.666 156.48ZM25.1943 151.491L26.6113 150.08C23.5845 147.041 21.6276 143.649 20.8432 140.699C20.0431 137.69 20.5381 135.564 21.6888 134.418L20.2773 133.001L18.8659 131.584C16.2739 134.166 15.9981 138.043 16.9775 141.727C17.9726 145.469 20.3456 149.458 23.7774 152.903L25.1943 151.491ZM20.2773 133.001L21.6888 134.418C22.0229 134.085 22.4184 133.82 22.879 133.621L22.0889 131.784L21.2988 129.947C20.3983 130.334 19.5753 130.877 18.8659 131.584L20.2773 133.001ZM22.0889 131.784L23.0338 133.547C26.2529 131.821 31.2892 128.868 34.3942 125.686L32.9629 124.289L31.5316 122.892C28.898 125.591 24.3571 128.299 21.144 130.021L22.0889 131.784ZM32.9629 124.289L34.3942 125.686C36.8746 123.144 39.2495 119.306 40.973 116.204L39.2246 115.232L37.4763 114.261C35.7759 117.322 33.6146 120.758 31.5315 122.892L32.9629 124.289ZM39.2246 115.232L40.9467 114.215C38.0063 109.237 36.25 103.075 36.25 96.375H34.25H32.25C32.25 103.767 34.1868 110.636 37.5026 116.25L39.2246 115.232ZM34.25 96.375H36.25C36.25 93.3875 36.6007 90.5051 37.2492 87.7851L35.3037 87.3213L33.3582 86.8574C32.6374 89.8808 32.25 93.0746 32.25 96.375H34.25ZM35.3037 87.3213L34.3672 85.5541C31.2566 87.2025 27.932 89.7868 25.4556 91.8811L26.7471 93.4082L28.0386 94.9353C30.462 92.8858 33.5212 90.5294 36.2402 89.0885L35.3037 87.3213ZM26.7471 93.4082L24.7472 93.4262C24.7474 93.4592 24.7483 93.4871 24.7491 93.5063C24.7497 93.5239 24.7505 93.5413 24.7507 93.5452C24.7511 93.5528 24.7509 93.5493 24.7507 93.5432C24.7504 93.5361 24.75 93.5207 24.75 93.5H26.75H28.75C28.75 93.464 28.7492 93.4332 28.7485 93.4109C28.7478 93.3895 28.7469 93.3707 28.7466 93.3629C28.746 93.3516 28.7461 93.3536 28.7462 93.356C28.7464 93.3599 28.7468 93.3725 28.747 93.3902L26.7471 93.4082ZM26.75 93.5H24.75C24.75 97.9183 21.1683 101.5 16.75 101.5V103.5V105.5C23.3774 105.5 28.75 100.127 28.75 93.5H26.75ZM16.75 103.5V101.5C12.3317 101.5 8.75 97.9183 8.75 93.5H6.75H4.75C4.75 100.127 10.1226 105.5 16.75 105.5V103.5ZM6.75 93.5H8.75C8.75 89.0817 12.3317 85.5 16.75 85.5V83.5V81.5C10.1226 81.5 4.75 86.8726 4.75 93.5H6.75ZM16.75 83.5V85.5C17.0355 85.5 17.317 85.5149 17.5938 85.5438L17.8018 83.5547L18.0097 81.5655C17.5952 81.5222 17.1749 81.5 16.75 81.5V83.5ZM17.8018 83.5547L19.3518 84.8186C19.3747 84.7905 19.3944 84.7716 19.4102 84.7588L18.1484 83.207L16.8866 81.6553C16.6433 81.8532 16.4329 82.0687 16.2518 82.2908L17.8018 83.5547ZM18.1484 83.207L19.4102 84.7588C21.9917 82.6597 27.2897 78.5599 31.4091 76.627L30.5596 74.8164L29.71 73.0058C25.0892 75.1739 19.4424 79.5772 16.8867 81.6553L18.1484 83.207ZM30.5596 74.8164L31.4091 76.627C35.4187 74.7457 41.7261 73.3172 45.0774 72.6478L44.6855 70.6865L44.2937 68.7253C40.9695 69.3894 34.214 70.8925 29.71 73.0058L30.5596 74.8164ZM44.6855 70.6865L46.0436 72.1547C46.1164 72.0874 46.1833 72.0281 46.2827 71.9384L44.9434 70.4531L43.604 68.9678C43.5314 69.0333 43.4251 69.128 43.3275 69.2183L44.6855 70.6865ZM44.9434 70.4531L46.6021 69.3357C44.0121 65.4913 42.5 60.8628 42.5 55.875H40.5H38.5C38.5 61.6841 40.264 67.0869 43.2847 71.5706L44.9434 70.4531ZM40.5 55.875H42.5C42.5 42.5511 53.3011 31.75 66.625 31.75V29.75V27.75C51.092 27.75 38.5 40.342 38.5 55.875H40.5Z" fill="black" mask="url(#path-7-outside-2_1190_656)"/>
<path d="M73.4805 58.25C73.4805 58.25 75.3582 60.2652 77.1011 60.4971C78.8441 60.729 80.915 59.2391 80.915 59.2391" stroke="black" stroke-linecap="round"/>
<ellipse cx="74.25" cy="53.625" rx="1" ry="1.375" fill="black"/>
<ellipse cx="80.5" cy="54.125" rx="1" ry="1.375" fill="black"/>
<path d="M77 123.25C74.625 121.25 74.25 121.125 73.75 120.875" stroke="black" stroke-width="1.5" stroke-linecap="round"/>
<path d="M87.625 95.5C85.4192 94.2906 84.7211 93.7779 84 93" stroke="black" stroke-width="1.5" stroke-linecap="round"/>
<path d="M101.518 47.6187C101.769 45.4835 100.242 43.5486 98.107 43.2968L91.0262 42.4614L90.114 50.1939L97.1948 51.0293C99.3301 51.2812 101.266 49.754 101.518 47.6187Z" fill="#4CB682" stroke="black" stroke-width="2"/>
<path d="M65.7601 25.662L72.4976 26.4569C84.3539 27.8556 92.8559 38.5307 91.6049 50.3699L41.6127 44.4722C43.1511 32.667 53.9038 24.2633 65.7601 25.662Z" fill="#5FD59B" stroke="black" stroke-width="2" stroke-linejoin="round"/>
<path d="M69.6035 25.7871C69.6035 25.7871 62.957 29.9094 60.4128 33.944C57.8686 37.9787 56.5739 46.4501 56.5739 46.4501" stroke="black" stroke-linecap="round"/>
<path d="M68.8301 25.9238C68.8301 25.9238 74.1902 31.4625 75.6771 35.9728C77.164 40.483 76.4449 49.0223 76.4449 49.0223" stroke="black" stroke-linecap="round"/>
<path d="M69.1549 24.7791C69.6808 24.8412 70.1702 24.9816 70.5379 25.1753C70.72 25.2713 70.8968 25.3927 71.0301 25.5461C71.1636 25.6999 71.2877 25.9294 71.2547 26.2098C71.2216 26.4902 71.0475 26.6845 70.8818 26.803C70.7164 26.9213 70.5163 26.9991 70.3168 27.05C69.9141 27.1529 69.4055 27.1746 68.8796 27.1126C68.354 27.0505 67.8651 26.9111 67.4975 26.7174C67.3152 26.6214 67.1378 26.4992 67.0044 26.3456C66.8709 26.1918 66.7468 25.9622 66.7799 25.6819C66.813 25.4016 66.9871 25.2072 67.1527 25.0887C67.3182 24.9703 67.519 24.8937 67.7186 24.8427C68.1212 24.7399 68.6291 24.7171 69.1549 24.7791Z" fill="#FFEC8A" stroke="black"/>
</svg>
