<svg width="17" height="12" viewBox="0 0 17 12" fill="none" xmlns="http://www.w3.org/2000/svg">
<path d="M8.33333 0C4.1925 0 0 1.28833 0 3.75C0 6.21167 4.1925 7.5 8.33333 7.5C12.4742 7.5 16.6667 6.21167 16.6667 3.75C16.6667 1.28833 12.475 0 8.33333 0ZM4.16667 8.28167V10.7817C5.1975 11.0308 6.3375 11.1833 7.5 11.2325V8.7325C6.37699 8.6896 5.26072 8.53863 4.16667 8.28167ZM9.16667 8.73167V11.2317C10.2897 11.1888 11.4059 11.0378 12.5 10.7808V8.28083C11.4059 8.53779 10.2897 8.68877 9.16667 8.73167ZM14.1667 7.7475V10.2475C15.6675 9.61833 16.6667 8.7 16.6667 7.5V5C16.6667 6.2 15.6675 7.11833 14.1667 7.7475ZM2.5 10.2475V7.7475C1 7.11833 0 6.19917 0 5V7.5C0 8.69917 1 9.61833 2.5 10.2475Z" fill="#FFEC8A"/>
</svg>
