<svg width="54" height="54" viewBox="0 0 54 54" fill="none" xmlns="http://www.w3.org/2000/svg">
<g filter="url(#filter0_dd_473_3588)">
<circle cx="27" cy="27.0001" r="9" transform="rotate(-135 27 27.0001)" fill="#5FD59B"/>
<circle cx="27" cy="27.0001" r="10" transform="rotate(-135 27 27.0001)" stroke="white" stroke-width="2"/>
</g>
<g filter="url(#filter1_d_473_3588)">
<path d="M12.572 41.6747C12.4218 41.7168 12.2834 41.5784 12.3255 41.4282L14.8373 32.4575C14.8869 32.2802 15.1334 32.2555 15.2193 32.4182C15.663 33.258 16.6635 35.0305 17.7233 36.0903C18.805 37.1719 20.7368 38.2995 21.6056 38.7804C21.7644 38.8683 21.7371 39.1085 21.5623 39.1575L12.572 41.6747Z" fill="#5FD59B"/>
<path d="M12.7068 42.1566C12.2139 42.2945 11.7571 41.8768 11.8236 41.3908L11.8436 41.2935L14.3558 32.322C14.53 31.7016 15.3688 31.6304 15.6616 32.1846C16.1062 33.0263 17.0766 34.7363 18.077 35.7367C19.1019 36.7616 20.9726 37.8586 21.8474 38.3428C22.3936 38.6452 22.3064 39.4681 21.6975 39.6389L12.7068 42.1566Z" stroke="white"/>
</g>
<defs>
<filter id="filter0_dd_473_3588" x="0" y="0" width="54" height="54" filterUnits="userSpaceOnUse" color-interpolation-filters="sRGB">
<feFlood flood-opacity="0" result="BackgroundImageFix"/>
<feColorMatrix in="SourceAlpha" type="matrix" values="0 0 0 0 0 0 0 0 0 0 0 0 0 0 0 0 0 0 127 0" result="hardAlpha"/>
<feMorphology radius="14" operator="dilate" in="SourceAlpha" result="effect1_dropShadow_473_3588"/>
<feOffset/>
<feGaussianBlur stdDeviation="1"/>
<feComposite in2="hardAlpha" operator="out"/>
<feColorMatrix type="matrix" values="0 0 0 0 0.372549 0 0 0 0 0.835294 0 0 0 0 0.607843 0 0 0 0.25 0"/>
<feBlend mode="normal" in2="BackgroundImageFix" result="effect1_dropShadow_473_3588"/>
<feColorMatrix in="SourceAlpha" type="matrix" values="0 0 0 0 0 0 0 0 0 0 0 0 0 0 0 0 0 0 127 0" result="hardAlpha"/>
<feMorphology radius="1" operator="dilate" in="SourceAlpha" result="effect2_dropShadow_473_3588"/>
<feOffset/>
<feGaussianBlur stdDeviation="2"/>
<feComposite in2="hardAlpha" operator="out"/>
<feColorMatrix type="matrix" values="0 0 0 0 0.372549 0 0 0 0 0.835294 0 0 0 0 0.607843 0 0 0 0.8 0"/>
<feBlend mode="normal" in2="effect1_dropShadow_473_3588" result="effect2_dropShadow_473_3588"/>
<feBlend mode="normal" in="SourceGraphic" in2="effect2_dropShadow_473_3588" result="shape"/>
</filter>
<filter id="filter1_d_473_3588" x="10.3167" y="30.3096" width="13.3938" height="13.374" filterUnits="userSpaceOnUse" color-interpolation-filters="sRGB">
<feFlood flood-opacity="0" result="BackgroundImageFix"/>
<feColorMatrix in="SourceAlpha" type="matrix" values="0 0 0 0 0 0 0 0 0 0 0 0 0 0 0 0 0 0 127 0" result="hardAlpha"/>
<feOffset/>
<feGaussianBlur stdDeviation="0.5"/>
<feComposite in2="hardAlpha" operator="out"/>
<feColorMatrix type="matrix" values="0 0 0 0 0 0 0 0 0 0 0 0 0 0 0 0 0 0 0.25 0"/>
<feBlend mode="normal" in2="BackgroundImageFix" result="effect1_dropShadow_473_3588"/>
<feBlend mode="normal" in="SourceGraphic" in2="effect1_dropShadow_473_3588" result="shape"/>
</filter>
</defs>
</svg>
