<svg width="16" height="16" viewBox="0 0 16 16" fill="none" xmlns="http://www.w3.org/2000/svg">
<path d="M8 1.14307C10.6826 1.14307 12.8571 3.14307 12.8571 6.57164C12.8571 9.18021 10.0454 12.9468 8.70057 14.5991C8.31371 15.0574 7.66428 15.0391 7.29971 14.5991C5.95514 12.9476 3.14285 9.18078 3.14285 6.57164C3.14285 3.14307 5.31742 1.14307 8 1.14307ZM8 4.28592C7.54534 4.28592 7.1093 4.46654 6.78781 4.78803C6.46632 5.10952 6.28571 5.54555 6.28571 6.00021C6.28571 6.45487 6.46632 6.8909 6.78781 7.21239C7.1093 7.53388 7.54534 7.7145 8 7.7145C8.45465 7.7145 8.89069 7.53388 9.21218 7.21239C9.53367 6.8909 9.71428 6.45487 9.71428 6.00021C9.71428 5.54555 9.53367 5.10952 9.21218 4.78803C8.89069 4.46654 8.45465 4.28592 8 4.28592Z" fill="#FFEC8A"/>
</svg>
