<svg width="12" height="14" viewBox="0 0 12 14" fill="none" xmlns="http://www.w3.org/2000/svg">
<path fill-rule="evenodd" clip-rule="evenodd" d="M2 4C2 2.93913 2.42143 1.92172 3.17157 1.17157C3.92172 0.421427 4.93913 0 6 0C7.06087 0 8.07828 0.421427 8.82843 1.17157C9.57857 1.92172 10 2.93913 10 4H10.6667C11.0203 4 11.3594 4.14048 11.6095 4.39052C11.8595 4.64057 12 4.97971 12 5.33333V12C12 12.3536 11.8595 12.6928 11.6095 12.9428C11.3594 13.1929 11.0203 13.3333 10.6667 13.3333H1.33333C0.979711 13.3333 0.640573 13.1929 0.390524 12.9428C0.140476 12.6928 0 12.3536 0 12V5.33333C0 4.97971 0.140476 4.64057 0.390524 4.39052C0.640573 4.14048 0.979711 4 1.33333 4H2ZM6 1.33333C6.70724 1.33333 7.38552 1.61428 7.88562 2.11438C8.38572 2.61448 8.66667 3.29276 8.66667 4H3.33333C3.33333 3.29276 3.61428 2.61448 4.11438 2.11438C4.61448 1.61428 5.29276 1.33333 6 1.33333ZM7.33333 8C7.33333 8.23404 7.27172 8.46396 7.15469 8.66665C7.03767 8.86933 6.86935 9.03764 6.66667 9.15467V10C6.66667 10.1768 6.59643 10.3464 6.4714 10.4714C6.34638 10.5964 6.17681 10.6667 6 10.6667C5.82319 10.6667 5.65362 10.5964 5.5286 10.4714C5.40357 10.3464 5.33333 10.1768 5.33333 10V9.15467C5.07916 9.0079 4.88052 8.78137 4.76821 8.51021C4.65589 8.23905 4.63619 7.9384 4.71216 7.6549C4.78812 7.3714 4.95551 7.12089 5.18836 6.94221C5.4212 6.76353 5.7065 6.66668 6 6.66667C6.35362 6.66667 6.69276 6.80714 6.94281 7.05719C7.19286 7.30724 7.33333 7.64638 7.33333 8Z" fill="white"/>
</svg>
