<svg width="20" height="20" viewBox="0 0 20 20" fill="none" xmlns="http://www.w3.org/2000/svg">
<rect x="1" y="1" width="18" height="18" rx="9" fill="#5FD59B"/>
<rect x="1" y="1" width="18" height="18" rx="9" stroke="white" stroke-width="2"/>
<g clip-path="url(#clip0_450_1956)">
<path d="M11.8929 5.41406L11.0159 6.29102L13.7093 8.98438L14.5862 8.10742C14.8519 7.84375 15.0003 7.48438 15.0003 7.10938C15.0003 6.73438 14.8519 6.375 14.5862 6.11133L13.889 5.41406C13.6253 5.14844 13.2659 5 12.8909 5C12.5159 5 12.1566 5.14844 11.8929 5.41406ZM10.3538 6.95313L6.1507 11.1543C5.94172 11.3633 5.78937 11.625 5.7093 11.9102L5.01789 14.4063C4.97297 14.5684 5.01789 14.7441 5.13898 14.8633C5.26008 14.9824 5.43391 15.0293 5.59601 14.9844L8.09211 14.291C8.37726 14.2109 8.63703 14.0605 8.84797 13.8496L13.0472 9.64648L10.3538 6.95313Z" fill="white"/>
</g>
<defs>
<clipPath id="clip0_450_1956">
<rect width="10" height="10" fill="white" transform="translate(5 5)"/>
</clipPath>
</defs>
</svg>
