<svg width="16" height="16" viewBox="0 0 16 16" fill="none" xmlns="http://www.w3.org/2000/svg">
<path fill-rule="evenodd" clip-rule="evenodd" d="M11.0347 14.7555C10.0747 14.7201 7.35399 14.3441 4.50466 11.4955C1.65599 8.64614 1.28066 5.92614 1.24466 4.96548C1.19132 3.50148 2.31266 2.07948 3.60799 1.52414C3.76397 1.45679 3.93479 1.43114 4.10368 1.44973C4.27256 1.46831 4.43372 1.53048 4.57132 1.63014C5.63799 2.40748 6.37399 3.58348 7.00599 4.50814C7.14505 4.7113 7.2045 4.95851 7.17303 5.20267C7.14155 5.44684 7.02135 5.67089 6.83532 5.83214L5.53466 6.79814C5.47182 6.84352 5.42759 6.91016 5.41017 6.98569C5.39276 7.06122 5.40336 7.1405 5.43999 7.20881C5.73466 7.74414 6.25866 8.54148 6.85866 9.14148C7.45866 9.74148 8.29399 10.3001 8.86666 10.6281C8.93846 10.6685 9.02297 10.6797 9.10283 10.6596C9.18268 10.6395 9.25181 10.5896 9.29599 10.5201L10.1427 9.23148C10.2983 9.02471 10.5279 8.88619 10.7834 8.84493C11.0389 8.80367 11.3005 8.86288 11.5133 9.01014C12.4513 9.65948 13.546 10.3828 14.3473 11.4088C14.4551 11.5474 14.5236 11.7124 14.5458 11.8866C14.5679 12.0607 14.5429 12.2376 14.4733 12.3988C13.9153 13.7008 12.5033 14.8095 11.0347 14.7555Z" fill="#FFEC8A"/>
</svg>
