<svg width="36" height="36" viewBox="0 0 36 36" fill="none" xmlns="http://www.w3.org/2000/svg">
<path d="M10.3103 30C9.92653 29.9993 9.54954 29.8987 9.21642 29.7081C8.46631 29.2831 8 28.4581 8 27.5625V9.4376C8 8.53948 8.46631 7.71698 9.21642 7.29198C9.55747 7.09601 9.94491 6.99523 10.3382 7.00017C10.7316 7.00512 11.1163 7.11562 11.4524 7.32011L26.9451 16.5926C27.268 16.795 27.5342 17.0761 27.7187 17.4095C27.9032 17.7429 28 18.1178 28 18.4988C28 18.8799 27.9032 19.2547 27.7187 19.5881C27.5342 19.9215 27.268 20.2026 26.9451 20.405L11.4499 29.68C11.106 29.8879 10.7121 29.9985 10.3103 30Z" fill="#5FD59B"/>
</svg>
