<svg width="24" height="24" viewBox="0 0 24 24" fill="none" xmlns="http://www.w3.org/2000/svg">
<path d="M16.205 11.9942L7.71297 20.7212C7.64306 20.7916 7.58778 20.8751 7.55035 20.9669C7.51291 21.0587 7.49406 21.1571 7.49489 21.2562C7.49571 21.3554 7.51619 21.4534 7.55515 21.5446C7.5941 21.6358 7.65076 21.7184 7.72183 21.7875C7.7929 21.8567 7.87699 21.9111 7.96922 21.9475C8.06145 21.984 8.15999 22.0018 8.25914 21.9999C8.35829 21.998 8.45608 21.9764 8.54685 21.9365C8.63763 21.8966 8.71958 21.839 8.78797 21.7672L17.788 12.5172C17.9242 12.3772 18.0004 12.1896 18.0004 11.9942C18.0004 11.7989 17.9242 11.6112 17.788 11.4712L8.78797 2.22123C8.71958 2.14942 8.63763 2.09188 8.54685 2.05195C8.45608 2.01202 8.35829 1.99049 8.25914 1.9886C8.15999 1.98671 8.06145 2.00451 7.96922 2.04095C7.87699 2.0774 7.7929 2.13178 7.72183 2.20093C7.65076 2.27009 7.5941 2.35266 7.55515 2.44386C7.51619 2.53505 7.49571 2.63307 7.49489 2.73223C7.49406 2.8314 7.51291 2.92974 7.55035 3.02158C7.58778 3.11341 7.64306 3.1969 7.71297 3.26723L16.205 11.9942Z" fill="white"/>
</svg>
